# xmcd
#
# Track frame offsets: 
#        150
#        19239
#        42644
#        59434
#        84410
#        107660
#        131112
#        148337
#        160889
#        169304
#        186162
#
# Disc length: 2892 seconds
#
# Revision: 0
# Processed by: cddbd v1.5.2PL0 Copyright (c) Steve Scherf et al.
# Submitted via: ExactAudioCopy v0.99pb5
#
DISCID=a20b4a0b
DTITLE=The Chris O'Leary Band - Mr. Used To Be
DYEAR=2010
DGENRE=Blues
TTITLE0=Mr. Used To Be
TTITLE1=Dress Blues
TTITLE2=Grease Monkey Mama
TTITLE3=Blues Is A Woman
TTITLE4=Water's Risin'
TTITLE5=Grass Is Always Green
TTITLE6=Christine
TTITLE7=Walk The Walk
TTITLE8=Salt Flats Boogie
TTITLE9=King Of The Jungle (For Ryan)
TTITLE10=Tchoupitoulas
EXTD=
EXTT0=
EXTT1=
EXTT2=
EXTT3=
EXTT4=
EXTT5=
EXTT6=
EXTT7=
EXTT8=
EXTT9=
EXTT10=
PLAYORDER=
